<?xml version="1.0" encoding="iso-8859-1"?>
<!-- Generator: Adobe Illustrator 19.0.0, SVG Export Plug-In . SVG Version: 6.00 Build 0)  -->
<svg xmlns="http://www.w3.org/2000/svg" xmlns:xlink="http://www.w3.org/1999/xlink" version="1.1" id="Layer_1" x="0px" y="0px" viewBox="0 0 512 512" style="enable-background:new 0 0 512 512;" xml:space="preserve">
<rect x="125.707" y="151.146" transform="matrix(-0.7071 -0.7071 0.7071 -0.7071 154.0889 658.0048)" style="fill:#E57225;" width="175.23" height="291.887"/>
<rect x="226.956" y="194.576" transform="matrix(-0.7071 -0.7071 0.7071 -0.7071 197.5385 762.8618)" style="fill:#F9AE41;" width="59.614" height="291.887"/>
<rect x="184.792" y="152.431" transform="matrix(-0.7071 -0.7071 0.7071 -0.7071 155.3602 661.1017)" style="fill:#F98821;" width="59.614" height="291.887"/>
<path id="SVGCleanerId_0" style="fill:#F23B3B;" d="M445.026,195.43l33.117-33.118c35.066-35.063,35.066-91.912-0.002-126.978  c-35.056-35.06-91.908-35.062-126.973,0.006l-33.115,33.115L445.026,195.43z"/>
<g>
	<path id="SVGCleanerId_0_1_" style="fill:#F23B3B;" d="M445.026,195.43l33.117-33.118c35.066-35.063,35.066-91.912-0.002-126.978   c-35.056-35.06-91.908-35.062-126.973,0.006l-33.115,33.115L445.026,195.43z"/>
</g>
<path style="fill:#C62222;" d="M394.641,76.197c25.679-25.68,61.648-34.785,94.631-27.331  C457.641,1.733,391.057-4.553,351.167,35.34l-33.115,33.115l42.165,42.166L394.641,76.197z"/>
<rect x="343.05" y="56.45" transform="matrix(-0.7071 0.7071 -0.7071 -0.7071 730.3568 -10.0517)" style="fill:#E6E8E8;" width="48.419" height="179.572"/>
<rect x="243.235" y="156.252" transform="matrix(0.7071 0.7071 -0.7071 0.7071 225.1419 -182.6265)" style="fill:#D4D6D6;" width="179.572" height="48.409"/>
<polygon style="fill:#C6C6C6;" points="327.981,142.568 328.673,141.877 286.652,99.856 252.417,134.088 294.438,176.109 "/>
<rect x="295.075" y="79.529" transform="matrix(-0.7071 -0.7071 0.7071 -0.7071 481.0923 406.7521)" style="fill:#DDDDDD;" width="59.424" height="48.419"/>
<path style="fill:#F4CF9D;" d="M10.336,466.608c0.125-0.548,37.674-127.729,37.834-128.268l126.463,126.465l-130.44,35.659  C28.478,505.068-1.726,507.738,10.336,466.608z"/>
<path style="fill:#EFBF86;" d="M89.922,380.094l-41.753-41.753c-0.159,0.538-37.708,127.719-37.834,128.268  c-12.062,41.13,18.142,38.461,33.856,33.857l11.098-3.032L89.922,380.094z"/>
<path style="fill:#6B6968;" d="M44.191,500.464l35.335-9.659l-58.956-58.958c-0.159,0.538-10.11,34.215-10.235,34.76  C-1.726,507.738,28.478,505.068,44.191,500.464z"/>
<path style="fill:#51504E;" d="M62.323,473.6l-41.752-41.753c-0.159,0.538-10.11,34.215-10.235,34.76  c-12.062,41.13,18.142,38.461,33.856,33.857l11.098-3.032L62.323,473.6z"/>
<path d="M510.214,80.17c-0.787-4.068-4.722-6.727-8.793-5.94c-4.068,0.787-6.728,4.725-5.94,8.793  c5.215,26.928-3.235,54.567-22.604,73.934l-24.985,24.985L331.481,65.531l24.983-24.983C395.696,1.314,461.778,11.39,487.572,60.471  c1.928,3.669,6.466,5.076,10.132,3.15c3.667-1.928,5.079-6.464,3.15-10.132C470.096-5.045,391.897-16.107,345.853,29.936  c-3.125,3.125-33.742,33.741-40.192,40.192C296.75,79.039,51.612,324.176,42.74,333.049c-1.837,1.838-2.521,4.391-2.055,6.762  C40.531,340.32,2.939,464.624,2.83,465.146C-6.065,496.17,7,510.573,28.153,510.573c9.802,0,10.219-0.695,82.749-20.523  c3.998-1.092,6.353-5.219,5.259-9.216c-1.092-3.998-5.223-6.348-9.216-5.259l-25.303,6.918l-52.531-52.532l23.196-76.733  c5.113,5.113,102.906,102.909,107.809,107.812l-27.892,7.626c-3.998,1.092-6.353,5.219-5.259,9.216  c1.092,3.998,5.225,6.347,9.216,5.259l37.828-10.341c2.436,0.35,4.752-0.499,6.368-2.113  c2.562-2.562,299.13-299.133,303.113-303.116C506.386,144.671,516.377,111.999,510.214,80.17z M294.544,186.81l31.559,31.559  L132.387,412.086c-19.136-19.136-11.891-11.891-31.558-31.559L294.544,186.81z M336.714,228.982l31.56,31.56L174.558,454.258  l-31.56-31.56L336.714,228.982z M252.373,144.639l31.56,31.56L90.216,369.914l-31.56-31.56L252.373,144.639z M437.281,192.554  l-23.638,23.638l-68.396-68.396c-2.931-2.929-7.681-2.929-10.611,0c-2.93,2.931-2.93,7.681,0,10.611l68.397,68.396l-23.636,23.636  c-72.131-72.131-43.925-43.926-116.412-116.413c16.34-16.339,11.662-11.662,23.636-23.634l29.677,29.678  c2.931,2.929,7.681,2.929,10.611,0c2.93-2.931,2.93-7.681,0-10.611l-29.678-29.678c8.512-8.513,4.823-4.823,23.64-23.64  L437.281,192.554z M24.185,446.257l40.79,40.79c-33.377,9.126-58.52,19.05-47.576-18.264  C18.09,466.403,15.348,475.493,24.185,446.257z"/>
<g>
</g>
<g>
</g>
<g>
</g>
<g>
</g>
<g>
</g>
<g>
</g>
<g>
</g>
<g>
</g>
<g>
</g>
<g>
</g>
<g>
</g>
<g>
</g>
<g>
</g>
<g>
</g>
<g>
</g>
</svg>
