<?xml version="1.0" encoding="UTF-8" standalone="no"?>
<svg
   viewBox="0 0 32 32"
   version="1.1"
   id="svg13"
   sodipodi:docname="trash.svg"
   inkscape:version="1.1.1 (3bf5ae0d25, 2021-09-20)"
   xmlns:inkscape="http://www.inkscape.org/namespaces/inkscape"
   xmlns:sodipodi="http://sodipodi.sourceforge.net/DTD/sodipodi-0.dtd"
   xmlns="http://www.w3.org/2000/svg"
   xmlns:svg="http://www.w3.org/2000/svg">
  <defs
     id="defs17" />
  <sodipodi:namedview
     id="namedview15"
     pagecolor="#505050"
     bordercolor="#eeeeee"
     borderopacity="1"
     inkscape:pageshadow="0"
     inkscape:pageopacity="0"
     inkscape:pagecheckerboard="0"
     showgrid="false"
     inkscape:zoom="26"
     inkscape:cx="15.980769"
     inkscape:cy="16.019231"
     inkscape:window-width="1920"
     inkscape:window-height="1017"
     inkscape:window-x="1912"
     inkscape:window-y="-8"
     inkscape:window-maximized="1"
     inkscape:current-layer="svg13" />
  <title
     id="title2">70-Trash</title>
  <g
     id="_70-Trash"
     data-name="70-Trash"
     style="fill:#ffffff">
    <path
       d="M29.89,6.55l-1-2A1,1,0,0,0,28,4H21V2a2,2,0,0,0-2-2H13a2,2,0,0,0-2,2V4H4a1,1,0,0,0-.89.55l-1,2A1,1,0,0,0,3,8H5V30a2,2,0,0,0,.47,1.41A2,2,0,0,0,7,32H25a2,2,0,0,0,2-2V8h2a1,1,0,0,0,.89-1.45ZM13,2h6V4H13ZM25,30H7V8H25Z"
       id="path4"
       style="fill:#ffffff" />
    <path
       d="M17,26V10a2,2,0,0,0-2,2l.06,14H15v2A2,2,0,0,0,17,26Z"
       id="path6"
       style="fill:#ffffff" />
    <path
       d="M22,26V10a2,2,0,0,0-2,2l.06,14H20v2A2,2,0,0,0,22,26Z"
       id="path8"
       style="fill:#ffffff" />
    <path
       d="M12,26V10a2,2,0,0,0-2,2l.06,14H10v2A2,2,0,0,0,12,26Z"
       id="path10"
       style="fill:#ffffff" />
  </g>
</svg>
